<svg id="Layer_1" data-name="Layer 1" xmlns="http://www.w3.org/2000/svg" viewBox="0 0 100 100"><title>icon--twitter</title><path d="M76.95,33.3a19.54,19.54,0,0,1-6.4,1.7,11.42,11.42,0,0,0,4.9-6.1,21.24,21.24,0,0,1-7,2.7,10.86,10.86,0,0,0-8.1-3.5,11.14,11.14,0,0,0-11.1,11.1,10.07,10.07,0,0,0,.3,2.5,31.44,31.44,0,0,1-22.8-11.6,10.43,10.43,0,0,0-1.5,5.6,11.27,11.27,0,0,0,4.9,9.2,12,12,0,0,1-5-1.4v.1a11.15,11.15,0,0,0,8.9,10.9,9.25,9.25,0,0,1-2.9.4,14.92,14.92,0,0,1-2.1-.2,11.09,11.09,0,0,0,10.3,7.7,22.06,22.06,0,0,1-13.7,4.7,21.11,21.11,0,0,1-2.6-.2,31.69,31.69,0,0,0,17,5c20.3.1,31.4-16.8,31.4-31.4V39.1A23.3,23.3,0,0,0,76.95,33.3Z"/></svg>