<svg id="Layer_1" data-name="Layer 1" xmlns="http://www.w3.org/2000/svg" viewBox="0 0 100 100"><title>icon--instagram</title><g id="Your_Icon" data-name="Your Icon"><g id="Instagram_Icon" data-name="Instagram Icon"><path d="M62.49,49.31a12.49,12.49,0,1,1-24.17-4.43H23V63.5A13.5,13.5,0,0,0,36.5,77h27A13.49,13.49,0,0,0,77,63.52s0,0,0,0V44.88H61.67A12.44,12.44,0,0,1,62.49,49.31Z"/><circle cx="50" cy="49.31" r="7.5"/><path d="M63.5,23H37.21V37.08h-3V23.21a13.35,13.35,0,0,0-3,.84V37h-3V25.76A13.46,13.46,0,0,0,23,36.5v4H41.19a12.49,12.49,0,0,1,17.62,0H77v-4A13.5,13.5,0,0,0,63.5,23Zm6,12.76A1.52,1.52,0,0,1,68,37.29H63.46a1.52,1.52,0,0,1-1.52-1.52h0V31.22a1.52,1.52,0,0,1,1.52-1.52H68a1.52,1.52,0,0,1,1.52,1.52Z"/></g></g></svg>