<svg id="Layer_1" data-name="Layer 1" xmlns="http://www.w3.org/2000/svg" viewBox="0 0 100 100"><title>icon--youtube</title><path d="M76,39.35s-.5-3.7-2.1-5.3a7.43,7.43,0,0,0-5.3-2.2c-7.4-.5-18.6-.5-18.6-.5s-11.1,0-18.6.5a7.43,7.43,0,0,0-5.3,2.2c-1.6,1.6-2.1,5.3-2.1,5.3a85.33,85.33,0,0,0-.5,8.6v4a85.33,85.33,0,0,0,.5,8.6s.5,3.7,2.1,5.3c2,2.1,4.7,2,5.8,2.3,4.2.4,18,.5,18,.5s11.1,0,18.6-.6a7.43,7.43,0,0,0,5.3-2.2c1.6-1.6,2.1-5.3,2.1-5.3a85.33,85.33,0,0,0,.5-8.6V48A71,71,0,0,0,76,39.35Zm-31.5,17.5V42l14.3,7.5Z"/></svg>